<svg width="28" height="28" viewBox="0 0 28 28" fill="none" xmlns="http://www.w3.org/2000/svg">
<path d="M19.4833 22.1433H8.51667C8.02667 22.1433 7.47834 21.7583 7.315 21.2916L2.485 7.78163C1.79667 5.84496 2.60167 5.24996 4.25834 6.43996L8.80834 9.69496C9.56667 10.22 10.43 9.95163 10.7567 9.09996L12.81 3.6283C13.4633 1.8783 14.5483 1.8783 15.2017 3.6283L17.255 9.09996C17.5817 9.95163 18.445 10.22 19.1917 9.69496L23.4617 6.64996C25.2817 5.3433 26.1567 6.0083 25.41 8.11996L20.6967 21.315C20.5217 21.7583 19.9733 22.1433 19.4833 22.1433Z" stroke="#562EE7" stroke-width="2" stroke-linecap="round" stroke-linejoin="round"/>
<path d="M7.58333 25.6666H20.4167" stroke="#562EE7" stroke-width="2" stroke-linecap="round" stroke-linejoin="round"/>
<path d="M11.0833 16.3334H16.9167" stroke="#562EE7" stroke-width="2" stroke-linecap="round" stroke-linejoin="round"/>
</svg>
