<svg width="28" height="28" viewBox="0 0 28 28" fill="none" xmlns="http://www.w3.org/2000/svg">
<g clip-path="url(#clip0_7_340)">
<path d="M25.445 4.59665C23.6483 9.07665 19.145 15.1666 15.3767 18.1883L13.0783 20.0316C12.7867 20.2416 12.495 20.4283 12.1683 20.5566C12.1683 20.3466 12.1567 20.1133 12.1217 19.8916C11.9933 18.9116 11.55 18.0016 10.7683 17.22C9.975 16.4266 9.00667 15.96 8.015 15.8316C7.78167 15.82 7.54834 15.7966 7.315 15.82C7.44334 15.4583 7.64167 15.12 7.88667 14.84L9.70667 12.5416C12.7167 8.77331 18.83 4.24665 23.2983 2.46165C23.9867 2.20498 24.6517 2.39165 25.0717 2.82331C25.515 3.25498 25.725 3.91998 25.445 4.59665Z" stroke="#562EE7" stroke-width="2" stroke-linecap="round" stroke-linejoin="round"/>
<path d="M12.1683 20.5567C12.1683 21.84 11.6783 23.065 10.7567 23.9984C10.045 24.71 9.07666 25.2 7.92166 25.3517L5.05166 25.6667C3.48833 25.8417 2.14666 24.5117 2.33333 22.925L2.64833 20.055C2.92833 17.5 5.06333 15.8667 7.32666 15.82C7.55999 15.8084 7.80499 15.82 8.02666 15.8317C9.01833 15.96 9.98666 16.415 10.78 17.22C11.5617 18.0017 12.005 18.9117 12.1333 19.8917C12.145 20.1134 12.1683 20.335 12.1683 20.5567Z" stroke="#562EE7" stroke-width="2" stroke-linecap="round" stroke-linejoin="round"/>
<path d="M16.6133 16.8816C16.6133 13.8366 14.14 11.3633 11.095 11.3633" stroke="#562EE7" stroke-width="2" stroke-linecap="round" stroke-linejoin="round"/>
<path d="M23.4733 14.8517L24.3367 15.7034C26.075 17.4417 26.075 19.1567 24.3367 20.895L20.8833 24.3484C19.1683 26.0634 17.43 26.0634 15.715 24.3484" stroke="#562EE7" stroke-width="2" stroke-linecap="round"/>
<path d="M3.62832 12.2617C1.91332 10.5234 1.91332 8.80836 3.62832 7.07003L7.08166 3.61669C8.79666 1.90169 10.535 1.90169 12.25 3.61669L13.1133 4.48003" stroke="#562EE7" stroke-width="2" stroke-linecap="round"/>
<path d="M13.125 4.4917L8.80832 8.80837" stroke="#562EE7" stroke-width="2" stroke-linecap="round"/>
<path d="M23.4733 14.8517L20.02 18.2934" stroke="#562EE7" stroke-width="2" stroke-linecap="round"/>
</g>
<defs>
<clipPath id="clip0_7_340">
<rect width="28" height="28" fill="white"/>
</clipPath>
</defs>
</svg>
