<svg width="37" height="36" viewBox="0 0 37 36" fill="none" xmlns="http://www.w3.org/2000/svg">
<path d="M33.2321 10.14L28.1771 30.4351C27.8171 31.9501 26.4671 33 24.9071 33H5.19705C2.93205 33 1.31207 30.7799 1.98707 28.6049L8.30206 8.32507C8.73706 6.91507 10.0421 5.93994 11.5121 5.93994H29.9621C31.3871 5.93994 32.5721 6.80995 33.0671 8.00995C33.3521 8.65495 33.4121 9.39001 33.2321 10.14Z" stroke="white" stroke-width="3" stroke-miterlimit="10"/>
<path d="M24.3371 33H31.5071C33.4421 33 34.9571 31.365 34.8221 29.43L33.3371 9" stroke="white" stroke-width="3" stroke-miterlimit="10" stroke-linecap="round" stroke-linejoin="round"/>
<path d="M14.8571 9.57001L16.4171 3.09009" stroke="white" stroke-width="3" stroke-miterlimit="10" stroke-linecap="round" stroke-linejoin="round"/>
<path d="M24.9071 9.58502L26.3171 3.07507" stroke="white" stroke-width="3" stroke-miterlimit="10" stroke-linecap="round" stroke-linejoin="round"/>
<path d="M11.8871 18H23.8871" stroke="white" stroke-width="3" stroke-miterlimit="10" stroke-linecap="round" stroke-linejoin="round"/>
<path d="M10.3871 24H22.3871" stroke="white" stroke-width="3" stroke-miterlimit="10" stroke-linecap="round" stroke-linejoin="round"/>
</svg>
