<svg width="27" height="27" viewBox="0 0 27 27" fill="none" xmlns="http://www.w3.org/2000/svg">
<path d="M25.0483 22.1667V5.83337C25.0483 3.50004 23.8817 2.33337 21.5483 2.33337H16.8817C14.5483 2.33337 13.3817 3.50004 13.3817 5.83337V22.1667C13.3817 24.5 14.5483 25.6667 16.8817 25.6667H21.5483C23.8817 25.6667 25.0483 24.5 25.0483 22.1667Z" stroke="#562EE7" stroke-width="2" stroke-linecap="round"/>
<path d="M13.3817 7H19.215" stroke="#562EE7" stroke-width="2" stroke-linecap="round"/>
<path d="M13.3817 21H18.0483" stroke="#562EE7" stroke-width="2" stroke-linecap="round"/>
<path d="M13.3817 16.2749L19.215 16.3332" stroke="#562EE7" stroke-width="2" stroke-linecap="round"/>
<path d="M13.3817 11.6666H16.8817" stroke="#562EE7" stroke-width="2" stroke-linecap="round"/>
<path d="M6.40499 2.33337C4.50333 2.33337 2.95166 3.88504 2.95166 5.77504V20.895C2.95166 21.42 3.17333 22.2134 3.44166 22.6684L4.39833 24.255C5.49499 26.0867 7.30333 26.0867 8.39999 24.255L9.35666 22.6684C9.62499 22.2134 9.84666 21.42 9.84666 20.895V5.77504C9.84666 3.88504 8.29499 2.33337 6.40499 2.33337Z" stroke="#562EE7" stroke-width="2" stroke-linecap="round"/>
<path d="M9.84666 8.16663H2.95166" stroke="#562EE7" stroke-width="2" stroke-linecap="round"/>
</svg>
